<?xml version="1.0" encoding="UTF-8" standalone="no"?>
<svg id="svg9341" xmlns:rdf="http://www.w3.org/1999/02/22-rdf-syntax-ns#" xmlns="http://www.w3.org/2000/svg" height="338.67mm" width="508mm" version="1.1" xmlns:cc="http://creativecommons.org/ns#" xmlns:dc="http://purl.org/dc/elements/1.1/" viewBox="0 0 1800 1199.9999">
<defs id="defs9343">
<pattern id="pattern11353" width="300" patternUnits="userSpaceOnUse" patternTransform="translate(85.714 335.22)" height="300.00003">
<path id="path8374" d="m0 0.00003v124.97c0.0575 0.002 0.11828 0.017 0.17578 0.0195 17.174 0.76342 24.613-26.134 5.8838-33.926l-3.1787-1.328 0.3711-10.532c0.4525-6.033 0.3039-11.616 0.8251-16.138 0.3575-3.104 1.1971-13.63 1.4454-26.582 0.4897-25.548-1.2647-24.589 14.174-10.727 7.0615 6.3397 15.793 14.006 19.409 17.031 6.8095 5.6968 7.6104 5.4106 6.0254 8.0469-0.025 0.111-0.0604 0.29331-0.0879 0.41504-1.2308 2.0621-1.8834 4.3945-1.8896 6.7725-0.0005 7.5555 6.3626 13.682 14.214 13.682 7.8508-0.00063 14.214-6.1269 14.214-13.682-0.00075-7.554-6.3639-13.676-14.214-13.677-2.6055 0.113-5.3729 0.71898-7.9932 1.4258l-6.912-7.974c-3.13-3.74-10.578-12.179-16.548-18.75-13.292-14.631-13.265-14.072-0.688-14.072 5.5915 0 18.1-0.44323 27.798-0.98633s21.822-1.1495 26.938-1.3476l9.3018-0.35645 2.6367 4.6582c8.8275 15.598 31.294 11.635 33.037-5.8252 0.0375-0.3827 0.046-0.74624 0.0635-1.1182h-125zm175 0c0.025 0.37192 0.026 0.73546 0.0635 1.1182 1.7435 17.461 24.209 21.423 33.037 5.8252l2.6367-4.6582 9.3018 0.35645c5.1165 0.19825 17.236 0.80455 26.934 1.3476 9.698 0.5431 22.206 0.98633 27.798 0.98633 12.576 0 12.604-0.55876-0.68847 14.072-5.9703 6.5714-13.413 15.01-16.543 18.75l-6.9189 7.9736c-2.62-0.7068-5.3874-1.3128-7.9932-1.4258-7.8498 0.0006-14.213 6.1228-14.214 13.677-0.0005 7.5548 6.3634 13.681 14.214 13.682 7.8515 0.00045 14.219-6.1261 14.219-13.682 0-2.378-0.6589-4.7104-1.8896-6.7725-0.025-0.12175-0.0629-0.30417-0.0879-0.41504-1.585-2.6362-0.78437-2.3501 6.0254-8.0469 3.6155-3.0249 12.348-10.692 19.409-17.031 15.44-13.862 13.68-14.821 14.17 10.728 0.2475 12.952 1.0876 23.478 1.4453 26.582 0.52101 4.5221 0.37295 10.105 0.8252 16.138l0.37108 10.532-3.1787 1.3232c-18.729 7.7916-11.285 34.689 5.8887 33.926 0.0575-0.002 0.11828-0.017 0.17578-0.0195l0.01-124.97h-125zm-25.176 25.015c-17.174-0.76342-24.617 26.134-5.8887 33.926l3.1787 1.3232-0.37108 10.532c-0.45225 6.033-0.30419 11.616-0.8252 16.138-0.35774 3.1042-1.1971 13.63-1.4453 26.582-0.48975 25.549 1.2698 24.589-14.17 10.728-7.0615-6.3397-15.794-14.006-19.409-17.031-6.8098-5.6968-7.6104-5.4106-6.0254-8.0469 0.025-0.111 0.0604-0.29332 0.0879-0.41504 1.2308-2.0621 1.8834-4.3944 1.8896-6.7725 0.0005-7.5555-6.3672-13.682-14.219-13.682-7.8505 0.00063-14.214 6.1269-14.214 13.682 0.00075 7.554 6.3641 13.676 14.214 13.677 2.6058-0.113 5.3732-0.719 7.9932-1.4258l6.9189 7.9736c3.13 3.7397 10.573 12.179 16.543 18.75 13.292 14.631 13.265 14.072 0.68848 14.072-5.5915 0-18.1 0.44323-27.798 0.98633s-21.817 1.1494-26.934 1.3476l-9.3018 0.35645-2.6367-4.6582c-8.8277-15.598-31.294-11.635-33.037 5.8252-0.0375 0.38275-0.046 0.74619-0.0635 1.1182 0.025 0.37192 0.026 0.73546 0.0635 1.1182 1.7435 17.461 24.209 21.423 33.037 5.8252l2.6367-4.6582 9.3018 0.35645c5.1165 0.19825 17.236 0.80455 26.934 1.3476 9.698 0.5431 22.206 0.98633 27.798 0.98633 12.576 0 12.604-0.55876-0.68848 14.072-5.9702 6.5714-13.413 15.01-16.543 18.75l-6.9189 7.9736c-2.62-0.7068-5.3874-1.3128-7.9932-1.4258-7.8498 0.0006-14.213 6.1228-14.214 13.677-0.0005 7.5548 6.3634 13.681 14.214 13.682 7.8515 0.00045 14.219-6.1261 14.219-13.682 0-2.378-0.6589-4.7104-1.8896-6.7725-0.025-0.12175-0.0629-0.30417-0.0879-0.41504-1.585-2.6362-0.78436-2.3501 6.0254-8.0469 3.6155-3.0249 12.348-10.692 19.409-17.031 15.44-13.862 13.68-14.821 14.17 10.728 0.2475 12.952 1.0876 23.478 1.4453 26.582 0.52101 4.5221 0.37295 10.105 0.8252 16.138l0.37108 10.532-3.1787 1.3232c-18.729 7.7916-11.285 34.689 5.8887 33.926 0.0575-0.002 0.11828-0.017 0.17578-0.0195 0.0575 0.002 0.11827 0.017 0.17578 0.0195 17.174 0.76342 24.613-26.134 5.8838-33.926l-3.1787-1.3232 0.3711-10.532c0.4525-6.033 0.30395-11.616 0.8252-16.138 0.3575-3.1042 1.197-13.63 1.4453-26.582 0.48975-25.549-1.2647-24.589 14.175-10.728 7.0615 6.3397 15.793 14.006 19.409 17.031 6.8095 5.6968 7.6104 5.4106 6.0254 8.0469-0.025 0.111-0.0604 0.29331-0.0879 0.41504-1.2308 2.0621-1.8834 4.3945-1.8896 6.7725-0.0005 7.5555 6.3626 13.682 14.214 13.682 7.8508-0.00063 14.214-6.1269 14.214-13.682-0.00076-7.554-6.3639-13.676-14.214-13.677-2.6055 0.113-5.3729 0.71898-7.9932 1.4258l-6.914-7.9736c-3.13-3.7397-10.578-12.179-16.548-18.75-13.292-14.631-13.265-14.072-0.68847-14.072 5.5915 0 18.1-0.44323 27.798-0.98633s21.822-1.1495 26.938-1.3476l9.3018-0.35645 2.6367 4.6582c8.8275 15.598 31.294 11.635 33.037-5.8252 0.0375-0.3827 0.046-0.74624 0.0635-1.1182-0.025-0.37198-0.026-0.73542-0.0635-1.1182-1.7435-17.461-24.21-21.423-33.037-5.8252l-2.6367 4.6582-9.3018-0.35645c-5.1165-0.19825-17.24-0.80455-26.938-1.3476-9.698-0.5431-22.206-0.98633-27.798-0.98633-12.576 0-12.604 0.55876 0.68847-14.072 5.9702-6.5714 13.418-15.01 16.548-18.75l6.914-7.9736c2.6202 0.70678 5.3877 1.3128 7.9932 1.4258 7.85-0.0006 14.213-6.1228 14.214-13.677 0.0005-7.5547-6.3631-13.681-14.214-13.682-7.8512-0.00047-14.214 6.1262-14.214 13.682 0 2.378 0.6589 4.7104 1.8896 6.7725 0.025 0.12175 0.0629 0.30414 0.0879 0.41504 1.585 2.6362 0.78413 2.3501-6.0254 8.0469-3.6158 3.0249-12.348 10.692-19.409 17.031-15.44 13.862-13.685 14.821-14.175-10.728-0.2475-12.952-1.0878-23.478-1.4453-26.582-0.52125-4.5221-0.37295-10.105-0.8252-16.138l-0.3711-10.532 3.1787-1.3232c18.729-7.7916 11.29-34.689-5.8838-33.926-0.0575 0.002-0.11828 0.017-0.17578 0.0195-0.0575-0.002-0.11828-0.017-0.17578-0.0195zm-149.65 150c-0.0575 0.002-0.11828 0.017-0.17578 0.0195v124.97h125c-0.025-0.37198-0.026-0.73542-0.0635-1.1182-1.7435-17.461-24.21-21.423-33.037-5.8252l-2.6367 4.6582-9.3018-0.35645c-5.1165-0.19825-17.24-0.80455-26.938-1.3476-9.698-0.5431-22.206-0.98633-27.798-0.98633-12.576 0-12.604 0.55876 0.68848-14.072 5.9702-6.5714 13.418-15.01 16.548-18.75l6.9141-7.9736c2.6202 0.70678 5.3877 1.3128 7.9932 1.4258 7.85-0.0006 14.213-6.1228 14.214-13.677 0.0005-7.5547-6.3631-13.681-14.214-13.682-7.8512-0.00047-14.214 6.1262-14.214 13.682 0 2.378 0.65889 4.7104 1.8896 6.7725 0.025 0.12175 0.0629 0.30414 0.0879 0.41504 1.585 2.6362 0.78411 2.3501-6.0254 8.0469-3.6157 3.0249-12.348 10.692-19.409 17.031-15.43 13.85-13.676 14.81-14.166-10.73-0.247-12.96-1.0874-23.48-1.4449-26.59-0.5212-4.52-0.3729-10.1-0.8252-16.13l-0.3711-10.54 3.1788-1.32c18.729-7.7916 11.29-34.689-5.8838-33.926zm299.65 0c-17.174-0.76342-24.617 26.134-5.8887 33.926l3.1787 1.3232-0.37108 10.532c-0.45225 6.033-0.30419 11.616-0.8252 16.138-0.35775 3.1042-1.1971 13.63-1.4453 26.582-0.48975 25.549 1.2698 24.589-14.17 10.728-7.0615-6.3397-15.794-14.006-19.409-17.031-6.8098-5.6968-7.6104-5.4106-6.0254-8.0469 0.025-0.111 0.0604-0.29332 0.0879-0.41504 1.2308-2.0621 1.8834-4.3944 1.8896-6.7725 0.0005-7.5555-6.3672-13.682-14.219-13.682-7.8505 0.00063-14.214 6.1269-14.214 13.682 0.00076 7.554 6.3641 13.676 14.214 13.677 2.6058-0.113 5.3732-0.719 7.9932-1.4258l6.9189 7.9736c3.13 3.7397 10.573 12.179 16.543 18.75 13.292 14.631 13.265 14.072 0.68847 14.072-5.5915 0-18.1 0.44323-27.798 0.98633s-21.817 1.1494-26.934 1.3476l-9.3018 0.35645-2.6367-4.6582c-8.8278-15.598-31.294-11.635-33.037 5.8252-0.0375 0.38275-0.046 0.74619-0.0635 1.1182h125v-124.97c-0.0575-0.002-0.11828-0.017-0.17578-0.0195z"/>
</pattern>
</defs>
<g id="layer1" transform="translate(-85.714 564.78)">
<rect id="rect9917" height="1200" width="1800" y="-564.78" x="85.714" fill="url(#pattern11353)"/>
</g>
</svg>
